
<svg class="svg-sprite" xmlns="http://www.w3.org/2000/svg">
    <symbol id="mainLogo" width="172" height="32" viewBox="0 0 172 32">
        <path d="M13.405 16.265H5.98v8.495H0V2.314h14.49l.558 4.727H5.98v4.496h6.866l.559 4.728ZM16.365 16.661c0-2.689.876-4.771 2.628-6.248 1.774-1.498 3.91-2.248 6.407-2.248 2.628 0 4.786.728 6.472 2.182 1.709 1.455 2.563 3.614 2.563 6.48 0 2.688-.887 4.749-2.661 6.181-1.774 1.41-3.943 2.116-6.506 2.116-2.562 0-4.687-.694-6.373-2.083-1.687-1.388-2.53-3.515-2.53-6.38Zm6.177 0c0 1.08.24 1.95.722 2.612.482.639 1.172.958 2.07.958.942 0 1.665-.286 2.169-.86.503-.572.755-1.42.755-2.545 0-1.08-.24-1.972-.723-2.677-.481-.727-1.171-1.091-2.07-1.091-.941 0-1.664.32-2.168.959-.504.639-.756 1.52-.756 2.644ZM48.016 24.76l-2.793-3.438-2.727 3.438h-6.735l5.848-7.967-5.848-7.305 6.177-.827 3.088 3.934 3.088-3.868h6.604l-6.078 8.397 6.078 7.636h-6.702ZM80.589 24.76H64.555V2.281h5.98v17.752h9.495l.559 4.727ZM85.857 6.545c-.876 0-1.632-.32-2.267-.958-.635-.64-.953-1.4-.953-2.281 0-.904.318-1.675.953-2.314C84.225.33 84.981 0 85.857 0c.898 0 1.665.33 2.3.992.657.639.986 1.41.986 2.314 0 .881-.329 1.642-.986 2.28a3.125 3.125 0 0 1-2.3.96ZM82.9 24.76V8.727h5.98V24.76H82.9ZM92.815 24.76V1.785l5.98-.364v7.604a8.13 8.13 0 0 1 1.543-.595 7.224 7.224 0 0 1 1.939-.265c2.563 0 4.479.794 5.75 2.38 1.27 1.587 1.905 3.57 1.905 5.95 0 2.403-.635 4.442-1.905 6.117-1.249 1.675-3.275 2.512-6.079 2.512-.898 0-1.807-.187-2.727-.562a10.977 10.977 0 0 1-2.398-1.355l-.986 1.553h-3.022Zm10.94-8.132c0-.948-.262-1.774-.788-2.48-.504-.726-1.238-1.09-2.201-1.09-.241 0-.559.044-.953.132a5.031 5.031 0 0 0-1.019.33v5.72c.307.286.69.529 1.15.727.46.176.898.264 1.314.264.898 0 1.534-.396 1.906-1.19.394-.815.591-1.62.591-2.413ZM112.9 24.76v-16h2.99l1.445 1.62c.657-.44 1.435-.826 2.333-1.157a7.752 7.752 0 0 1 2.694-.496l1.216 4.827c-.789 0-1.599.11-2.431.33a6.253 6.253 0 0 0-2.267 1.124v9.752h-5.98ZM129.871 19.372c0 .264.109.485.328.661.219.176.471.264.756.264.35 0 .701-.077 1.051-.23a4.61 4.61 0 0 0 1.052-.662v-1.19h-1.84c-.395 0-.723.11-.986.33-.241.199-.361.474-.361.827Zm-4.469-9.686c.833-.375 1.884-.716 3.154-1.025a15.338 15.338 0 0 1 3.877-.496c2.169 0 3.812.606 4.929 1.818 1.117 1.213 1.675 2.832 1.675 4.86v9.917h-2.661l-1.084-1.223c-.482.485-1.117.87-1.906 1.157a7.35 7.35 0 0 1-2.53.43c-2.015 0-3.515-.507-4.501-1.52-.986-1.014-1.478-2.348-1.478-4 0-1.742.58-3.009 1.741-3.802 1.161-.816 2.661-1.223 4.501-1.223h1.906c-.088-.485-.318-.86-.69-1.125-.373-.264-.833-.396-1.38-.396-.548 0-1.194.099-1.939.297-.744.177-1.423.397-2.037.662l-1.577-4.331ZM142.643 24.76v-16h2.99l1.445 1.62c.657-.44 1.435-.826 2.333-1.157a7.752 7.752 0 0 1 2.694-.496l1.216 4.827c-.789 0-1.599.11-2.431.33a6.253 6.253 0 0 0-2.267 1.124v9.752h-5.98ZM159.811 24.826l.131-.363-5.98-15.14 5.849-.596 3.187 9.058 3.055-9.058H172l-6.998 17.918c-.504 1.3-1.446 2.424-2.826 3.372-1.38.97-2.858 1.63-4.435 1.983l-2.004-4.661c.788-.33 1.621-.716 2.497-1.157.876-.419 1.401-.87 1.577-1.356Z" fill="#FF5D4F"/>
    </symbol>
    <symbol id="dropDown" viewBox="0 0 16 10">
        <path d="M14.12 0 8 6.107 1.88 0 0 1.88l8 8 8-8L14.12 0Z" fill="#616161"/>
    </symbol>
    <symbol id="facebook"  viewBox="0 0 26 26" >
        <path fill-rule="evenodd" clip-rule="evenodd" d="M21.125 0H4.875A4.875 4.875 0 0 0 0 4.875v16.25A4.875 4.875 0 0 0 4.875 26h16.25A4.875 4.875 0 0 0 26 21.125V4.875A4.875 4.875 0 0 0 21.125 0Zm-.66 14.002h-2.433v9.005h-4.064v-9.005h-1.577v-3.034h1.577V9.035c0-2.532 1.054-4.037 4.037-4.037h3.024V8.02h-1.758c-1.163 0-1.239.434-1.239 1.242l-.003 1.704h2.764l-.332 3.034.004.003Z" fill="#000"/>
    </symbol>
    <symbol id="instagram" viewBox="0 0 26 26">
       <path d="M8.668 13a4.333 4.333 0 1 1 8.666 0 4.333 4.333 0 0 1-8.666 0Zm-2.343 0a6.676 6.676 0 1 0 13.35 0 6.676 6.676 0 0 0-13.35 0ZM18.38 6.06a1.56 1.56 0 1 0 3.122 0 1.56 1.56 0 0 0-3.122 0ZM7.748 23.583c-1.268-.058-1.957-.27-2.414-.448a4.043 4.043 0 0 1-1.496-.972 4.018 4.018 0 0 1-.972-1.494c-.179-.458-.39-1.147-.448-2.415-.063-1.37-.075-1.782-.075-5.254 0-3.471.013-3.882.075-5.253.058-1.268.27-1.956.448-2.414.236-.607.518-1.04.972-1.496a4.014 4.014 0 0 1 1.496-.972c.457-.179 1.146-.39 2.414-.448 1.37-.063 1.782-.075 5.253-.075s3.882.013 5.253.075c1.268.058 1.956.27 2.415.448a4.03 4.03 0 0 1 1.495.972c.455.455.736.889.972 1.496.179.457.39 1.146.448 2.414.063 1.371.075 1.782.075 5.254 0 3.47-.012 3.882-.075 5.253-.058 1.268-.27 1.957-.448 2.415a4.031 4.031 0 0 1-.972 1.494 4.034 4.034 0 0 1-1.495.972c-.458.179-1.147.39-2.415.448-1.37.063-1.782.075-5.254.075-3.47 0-3.882-.012-5.252-.075ZM7.64.079C6.257.142 5.31.36 4.485.683a6.38 6.38 0 0 0-2.303 1.5 6.362 6.362 0 0 0-1.5 2.302c-.32.827-.54 1.772-.603 3.156C.015 9.027 0 9.47 0 13c0 3.53.015 3.973.079 5.36.063 1.383.282 2.328.604 3.155.331.855.776 1.58 1.5 2.303a6.375 6.375 0 0 0 2.302 1.5c.828.32 1.772.54 3.156.603 1.387.063 1.829.08 5.36.08 3.531 0 3.973-.016 5.36-.08 1.383-.063 2.328-.282 3.155-.604a6.393 6.393 0 0 0 2.303-1.5 6.384 6.384 0 0 0 1.5-2.302c.32-.826.541-1.772.603-3.156.063-1.387.078-1.829.078-5.36 0-3.53-.015-3.973-.078-5.36-.063-1.383-.282-2.328-.604-3.155a6.393 6.393 0 0 0-1.5-2.303 6.375 6.375 0 0 0-2.301-1.5c-.828-.32-1.773-.541-3.156-.603C16.975.016 16.532 0 13.001 0 9.47 0 9.029.015 7.642.079Z" fill="#000"/>
    </symbol>
    <symbol id="titleImg" viewBox="0 0 668 358">
        <path d="m34.056 357.052 209.138-.964 55.748-.014h18.467l55.854-.013 255.172-.063s58.365-66.455-3.98-129.574c-64.64-65.447-96.069-12.155-115.939-104.268-50.014-231.87-544.491-96.915-414.794 100.397 46.699 71.046-91.924 33.284-59.666 134.499Z" fill="#EBF3FA"/><g opacity=".5">
        <path opacity=".5" d="M403.81 356.107H117.087V108.211a19.882 19.882 0 0 1 5.819-14.028 19.861 19.861 0 0 1 14.02-5.822h250.221a16.667 16.667 0 0 1 11.776 4.882 16.685 16.685 0 0 1 4.887 11.779v251.085Zm-282.214-4.512h277.693V105.022a12.155 12.155 0 0 0-12.142-12.15H136.926a15.345 15.345 0 0 0-10.835 4.499 15.365 15.365 0 0 0-4.495 10.84v243.384Z" fill="#C8DBF4"/>
        <path opacity=".5" d="M401.544 140.336H119.341v5.018h282.203v-5.018ZM401.544 180.742H119.341v5.018h282.203v-5.018ZM401.544 221.148H119.341v5.018h282.203v-5.018ZM401.544 261.701H119.341v5.019h282.203v-5.019ZM180.895 261.699h7.048V235.46h-7.048v26.239ZM173.144 261.701h6.106v-28.518h-6.106v28.518Z" fill="#C8DBF4"/>
        <path opacity=".5" d="m163.602 261.237 6.061.742 3.458-28.308-6.06-.741-3.459 28.307Z" fill="#D2E3FC"/>
        <path opacity=".5" d="M377.8 261.699h7.046V235.46H377.8v26.239ZM370.05 261.701h6.106v-28.518h-6.106v28.518Z" fill="#C8DBF4"/>
        <path opacity=".5" d="m360.503 261.253 6.06.741 3.459-28.307-6.06-.742-3.459 28.308Z" fill="#D2E3FC"/>
        <path opacity=".5" d="M129.27 261.701h28.814v-5.131H129.27v5.131Z" fill="#95C0F4"/>
        <path opacity=".5" d="M125.747 256.568h28.815v-3.53h-28.815v3.53Z" fill="#B7D3F3"/>
        <path opacity=".5" d="M128.58 253.041h27.626v-3.53H128.58v3.53Z" fill="#D2E3FC"/>
        <path opacity=".5" d="M127.91 249.511h24.949v-2.695H127.91v2.695Z" fill="#C8DBF4"/>
        <path opacity=".5" d="M267.58 261.701h28.814v-5.131H267.58v5.131Z" fill="#D2E3FC"/>
        <path opacity=".5" d="M264.057 256.568h28.814v-3.53h-28.814v3.53Z" fill="#B7D3F3"/>
        <path opacity=".5" d="M266.889 253.041h27.627v-3.53h-27.627v3.53Z" fill="#D2E3FC"/>
        <path opacity=".5" d="M266.219 249.511h24.949v-2.695h-24.949v2.695Z" fill="#C8DBF4"/>
        <path opacity=".5" d="M263.107 246.818h28.814v-3.529h-28.814v3.529Z" fill="#B7D3F3"/>
        <path opacity=".5" d="M265.942 243.286h27.627v-3.529h-27.627v3.529Z" fill="#D2E3FC"/>
        <path opacity=".5" d="M265.272 239.759h24.949v-2.695h-24.949v2.695Z" fill="#C8DBF4"/>
        <path opacity=".5" d="M245.98 261.588h4.911v-28.405h-4.911v28.405ZM306.383 261.588h4.911v-29.706h-4.911v29.706ZM321.262 261.588h4.912v-28.405h-4.912v28.405Z" fill="#C1D9F4"/>
        <path opacity=".5" d="M239.773 261.588h6.207v-30.749h-6.207v30.749ZM327.195 261.588h6.207v-30.749h-6.207v30.749Z" fill="#E4EEF9"/>
        <path opacity=".5" d="M233.565 261.588h6.208v-29.283h-6.208v29.283ZM297.3 261.574l6.115-1.067-5.71-32.735-6.115 1.068 5.71 32.734Z" fill="#B7D3F3"/>
        <path opacity=".5" d="M227.356 261.586h6.207v-24.792h-6.207v24.792ZM335.32 261.586h6.207v-24.792h-6.207v24.792Z" fill="#C8DBF4"/>
        <path opacity=".5" d="M221.148 261.586h6.208V235.46h-6.208v26.126Z" fill="#95C0F4"/>
        <path opacity=".5" d="M213.948 261.586h6.207V235.46h-6.207v26.126ZM342.391 261.586h6.207V235.46h-6.207v26.126Z" fill="#D2E3FC"/>
        <path opacity=".5" d="M206.581 261.588h6.207v-28.405h-6.207v28.405ZM314.422 261.588h6.207v-28.405h-6.207v28.405Z" fill="#AFCDFB"/>
        <path opacity=".5" d="M329.699 114.21h-7.048v26.239h7.048V114.21ZM337.447 111.931h-6.106v28.518h6.106v-28.518Z" fill="#C8DBF4"/>
        <path opacity=".5" d="m343.504 111.694-6.061.741 3.459 28.308 6.061-.741-3.459-28.308Z" fill="#D2E3FC"/>
        <path opacity=".5" d="M216.293 154.507h-7.049v26.239h7.049v-26.239ZM224.041 152.226h-6.106v28.518h6.106v-28.518Z" fill="#C8DBF4"/>
        <path opacity=".5" d="m230.113 151.942-6.061.742 3.464 28.307 6.06-.742-3.463-28.307Z" fill="#D2E3FC"/>
        <path opacity=".5" d="M132.796 114.21h-7.049v26.239h7.049V114.21ZM140.544 111.931h-6.106v28.518h6.106v-28.518Z" fill="#C8DBF4"/>
        <path opacity=".5" d="m146.598 111.678-6.061.742 3.459 28.307 6.061-.741-3.459-28.308Z" fill="#D2E3FC"/><path opacity=".5" d="M381.321 135.318h-28.814v5.131h28.814v-5.131Z" fill="#95C0F4"/><path opacity=".5" d="M384.844 131.79H356.03v3.53h28.814v-3.53Z" fill="#B7D3F3"/><path opacity=".5" d="M382.014 128.261h-27.627v3.529h27.627v-3.529Z" fill="#D2E3FC"/><path opacity=".5" d="M382.682 125.566h-24.95v2.695h24.95v-2.695Z" fill="#C8DBF4"/><path opacity=".5" d="M243.011 135.318h-28.814v5.131h28.814v-5.131Z" fill="#D2E3FC"/><path opacity=".5" d="M246.534 131.79H217.72v3.53h28.814v-3.53Z" fill="#B7D3F3"/><path opacity=".5" d="M243.705 128.261h-27.627v3.529h27.627v-3.529Z" fill="#D2E3FC"/><path opacity=".5" d="M244.372 125.566h-24.949v2.695h24.949v-2.695Z" fill="#C8DBF4"/><path opacity=".5" d="M247.484 122.036H218.67v3.53h28.814v-3.53Z" fill="#B7D3F3"/><path opacity=".5" d="M244.652 118.509h-27.627v3.529h27.627v-3.529Z" fill="#D2E3FC"/><path opacity=".5" d="M245.322 115.814h-24.95v2.695h24.95v-2.695Z" fill="#C8DBF4"/><path opacity=".5" d="M264.613 111.931h-4.911v28.405h4.911v-28.405ZM204.211 110.629h-4.912v29.707h4.912v-29.707ZM189.331 111.931h-4.911v28.405h4.911v-28.405Z" fill="#C1D9F4"/><path opacity=".5" d="M270.821 109.589h-6.207v30.749h6.207v-30.749ZM183.397 109.589h-6.208v30.749h6.208v-30.749Z" fill="#E4EEF9"/><path opacity=".5" d="M277.028 111.055h-6.207v29.283h6.207v-29.283ZM219.014 107.595l-6.115-1.068-5.71 32.735 6.115 1.067 5.71-32.734Z" fill="#B7D3F3"/><path opacity=".5" d="M333.203 175.61h-28.814v5.132h28.814v-5.132Z" fill="#D2E3FC"/><path opacity=".5" d="M336.726 172.081h-28.814v3.529h28.814v-3.529Z" fill="#B7D3F3"/><path opacity=".5" d="M333.894 168.553h-27.627v3.53h27.627v-3.53Z" fill="#D2E3FC"/>
        <path opacity=".5" d="M334.564 165.858h-24.949v2.695h24.949v-2.695Z" fill="#C8DBF4"/>
        <path opacity=".5" d="M337.676 162.329h-28.814v3.529h28.814v-3.529Z" fill="#B7D3F3"/>
        <path opacity=".5" d="M334.844 158.799h-27.627v3.53h27.627v-3.53Z" fill="#D2E3FC"/>
        <path opacity=".5" d="M335.511 156.104h-24.949v2.695h24.949v-2.695Z" fill="#C8DBF4"/>
        <path opacity=".5" d="m310.991 148.013-6.145-1.055-5.646 32.896 6.145 1.056 5.646-32.897Z" fill="#B7D3F3"/>
        <path opacity=".5" d="M283.235 115.543h-6.207v24.793h6.207v-24.793ZM175.274 115.543h-6.207v24.793h6.207v-24.793Z" fill="#C8DBF4"/>
        <path opacity=".5" d="M289.445 114.21h-6.207v26.126h6.207V114.21Z" fill="#95C0F4"/>
        <path opacity=".5" d="M296.643 114.21h-6.207v26.126h6.207V114.21ZM168.203 114.21h-6.208v26.126h6.208V114.21Z" fill="#D2E3FC"/>
        <path opacity=".5" d="M287.479 149.995h-6.207v30.749h6.207v-30.749Z" fill="#E4EEF9"/>
        <path opacity=".5" d="M279.357 155.949h-6.208v24.793h6.208v-24.793Z" fill="#C8DBF4"/>
        <path opacity=".5" d="M272.285 154.616h-6.207v26.126h6.207v-26.126ZM251.538 154.616h-6.207v26.126h6.207v-26.126ZM242.875 154.616h-6.207v26.126h6.207v-26.126Z" fill="#D2E3FC"/>
        <path opacity=".5" d="M145.138 149.995h-6.207v30.749h6.207v-30.749ZM151.319 149.722l-6.161.755 3.735 30.521 6.161-.755-3.735-30.521Z" fill="#E4EEF9"/>
        <path opacity=".5" d="M137.016 155.949h-6.207v24.793h6.207v-24.793Z" fill="#C8DBF4"/>
        <path opacity=".5" d="M129.945 154.616h-6.207v26.126h6.207v-26.126Z" fill="#D2E3FC"/>
        <path opacity=".5" d="M304.013 111.931h-6.208v28.405h6.208v-28.405Z" fill="#AFCDFB"/>
        <path opacity=".5" d="M236.548 192.742h-4.912v28.406h4.912v-28.406Z" fill="#C1D9F4"/>
        <path opacity=".5" d="M242.755 190.399h-6.207v30.749h6.207v-30.749Z" fill="#E4EEF9"/>
        <path opacity=".5" d="M248.965 191.864h-6.208v29.284h6.208v-29.284Z" fill="#B7D3F3"/>
        <path opacity=".5" d="M255.172 196.355h-6.207v24.793h6.207v-24.793Z" fill="#C8DBF4"/>
        <path opacity=".5" d="M261.379 195.022h-6.207v26.126h6.207v-26.126Z" fill="#95C0F4"/>
        <path opacity=".5" d="M268.58 195.022h-6.207v26.126h6.207v-26.126Z" fill="#D2E3FC"/>
        <path opacity=".5" d="M275.949 192.742h-6.207v28.406h6.207v-28.406ZM350.247 152.337h-6.207v28.405h6.207v-28.405ZM357.009 152.337h-6.207v28.405h6.207v-28.405ZM196.169 111.931h-6.207v28.405h6.207v-28.405Z" fill="#AFCDFB"/>
        <path opacity=".5" d="M365.021 216.141h-28.814v5.131h28.814v-5.131Z" fill="#D2E3FC"/>
        <path opacity=".5" d="M368.544 212.614h-28.815v3.529h28.815v-3.529Z" fill="#B7D3F3"/>
        <path opacity=".5" d="M365.711 209.084h-27.626v3.53h27.626v-3.53Z" fill="#D2E3FC"/>
        <path opacity=".5" d="M366.381 206.389h-24.949v2.695h24.949v-2.695Z" fill="#C8DBF4"/>
        <path opacity=".5" d="M369.493 202.86h-28.814v3.529h28.814v-3.529Z" fill="#B7D3F3"/>
        <path opacity=".5" d="M366.661 199.332h-27.627v3.53h27.627v-3.53Z" fill="#D2E3FC"/>
        <path opacity=".5" d="M367.328 196.637h-24.949v2.695h24.949v-2.695Z" fill="#C8DBF4"/>
        <path opacity=".5" d="M326.22 191.453h-4.911v29.706h4.911v-29.706ZM311.338 192.754h-4.911v28.405h4.911v-28.405Z" fill="#C1D9F4"/>
        <path opacity=".5" d="M305.403 190.413h-6.207v30.748h6.207v-30.748Z" fill="#E4EEF9"/>
        <path opacity=".5" d="m341.027 188.416-6.115-1.068-5.71 32.734 6.115 1.068 5.71-32.734Z" fill="#B7D3F3"/>
        <path opacity=".5" d="M297.281 196.369h-6.207v24.792h6.207v-24.792Z" fill="#C8DBF4"/>
        <path opacity=".5" d="M290.212 195.033h-6.207v26.126h6.207v-26.126Z" fill="#D2E3FC"/>
        <path opacity=".5" d="M224.898 190.413h-6.208v30.748h6.208v-30.748Z" fill="#E4EEF9"/>
        <path opacity=".5" d="M216.775 196.369h-6.207v24.792h6.207v-24.792Z" fill="#C8DBF4"/>
        <path opacity=".5" d="M209.704 195.033h-6.207v26.126h6.207v-26.126Z" fill="#D2E3FC"/>
        <path opacity=".5" d="M200.032 190.413h-6.208v30.748h6.208v-30.748Z" fill="#E4EEF9"/>
        <path opacity=".5" d="M191.909 196.369h-6.207v24.792h6.207v-24.792Z" fill="#C8DBF4"/>
        <path opacity=".5" d="M184.838 195.033h-6.207v26.126h6.207v-26.126Z" fill="#D2E3FC"/>
        <path opacity=".5" d="M318.178 192.754h-6.207v28.405h6.207v-28.405Z" fill="#AFCDFB"/></g>
        <path d="M471.919 92.65h-36.44a3.043 3.043 0 0 0-3.042 3.045v35.191a3.043 3.043 0 0 0 3.042 3.045h36.44a3.044 3.044 0 0 0 3.043-3.045v-35.19a3.043 3.043 0 0 0-3.043-3.045Z" fill="#C0D8FB"/>
        <path d="M470.339 94.44h-33.282a2.78 2.78 0 0 0-2.779 2.78v32.143a2.78 2.78 0 0 0 2.779 2.781h33.282a2.78 2.78 0 0 0 2.779-2.781V97.221a2.78 2.78 0 0 0-2.779-2.781Z" fill="#DFEBFD"/>
        <path d="M452.819 98.208a.88.88 0 0 1 1.052-.864.88.88 0 1 1-1.052.864ZM459.927 99.454a.884.884 0 0 1 .87-.448.88.88 0 1 1-.87.448ZM466.017 104.294a.883.883 0 0 1 1.295.417.886.886 0 0 1-.207.956.887.887 0 0 1-.454.234.885.885 0 0 1-.897-.389.888.888 0 0 1-.121-.664.87.87 0 0 1 .384-.554ZM469.032 111.785a.88.88 0 0 1 .817.543.885.885 0 0 1-.642 1.206.881.881 0 0 1-1.055-.866.884.884 0 0 1 .88-.883ZM467.493 120.48a.889.889 0 0 1 .191.96.882.882 0 0 1-1.302.395.878.878 0 0 1 .826-1.546c.106.045.203.11.285.191ZM461.339 127.535a.88.88 0 1 0 0-1.76.88.88 0 0 0 0 1.76ZM452.819 128.889a.883.883 0 0 1 1.054-.861.88.88 0 1 1-1.054.861ZM447.444 99.454a.88.88 0 1 0-1.539.854.88.88 0 0 0 1.539-.854ZM441.354 104.294a.88.88 0 1 0-.953 1.48.88.88 0 0 0 .953-1.48ZM438.339 111.785a.88.88 0 0 0-.817.543.885.885 0 0 0 .642 1.206.881.881 0 0 0 1.056-.866.885.885 0 0 0-.881-.883ZM439.878 120.48a.887.887 0 0 0-.189.96.879.879 0 0 0 1.301.394.88.88 0 1 0-1.112-1.354ZM446.032 127.535a.88.88 0 1 0 0-1.76.88.88 0 0 0 0 1.76ZM453.461 112.668a.882.882 0 1 1 1.765-.004.882.882 0 0 1-1.765.004Z" fill="#B7D3F3"/>
        <path d="M454.464 101.656h-.24v11.012h.24v-11.012Z" fill="#B7D3F3"/>
        <path d="m459.85 107.796-5.835 4.582.445.568 5.835-4.583-.445-.567Z" fill="#B7D3F3"/>
        <path d="M519.085 329.47s40.295-38.349 51.601-29.434c11.306 8.916-51.601 29.434-51.601 29.434ZM516.181 336.846s74.98-33.588 92.712-15.827c17.733 17.761-20.574 15.566-34.76 13.58-14.187-1.985-57.952 2.247-57.952 2.247ZM513.033 328.626s.353-1.888.834-4.653c.938-5.392 2.363-14.115 2.612-18.66.379-6.874 5.903-11.756 11.969-4.757 6.067 6.999-13.082 26.184-13.082 26.184l-2.333 1.886Z" fill="#CDE0FB"/>
        <path d="M534.304 197.326c-5.486-14.363-29.925-7.237-29.925-7.237s-14.309 27.548-19.174 28.662c-4.865 1.114 7.623-25.944 7.623-25.944-9.624.039-32.736 14.178-32.736 14.178s4.574 29.996-.407 29.876c-4.981-.121-2.696-26.764-2.696-26.764-8.945 3.698-16.469 15.334-16.469 15.334-8.995 18.62 15.365 29.216 15.365 29.216s1.363 10.429-3.886 23.077c0 0-1.236 2.363-2.338 6.278l2.516-.254c.136-.695.297-1.369.485-2.023v-.027c.134-.407.326-.985.566-1.69.617-1.583 1.024-2.748 1.273-3.583 1.827-4.958 4.523-11.446 6.605-12.96a4.91 4.91 0 0 1-.654-1.1l.654 1.1c5.234 8.783 26.913 8.164 38.655 4.494 11.742-3.671 6.175-6.528-.834-11.37-7.009-4.843-20.394-2.03-24.607-3.78-4.214-1.749 1.411-4.493 9.471-4.683 8.06-.189 12.861 7.397 25.897 7.332 13.036-.064 20.428-25.368 20.428-25.368-8.638 3.669-25.12.359-26.047-2.655-.926-3.014 22.783-5.086 26.38-6.389 3.597-1.304 9.34-9.354 3.855-23.72Z" fill="#DFEBFD"/>
        <path d="M140.407 324.163c-11.289-13.813 9.982-34.311 9.982-34.311s35.976 1.48 39.896-2.773c3.921-4.253-30.51-7.275-30.51-7.275 5.591-9.673 33.153-24.799 33.153-24.799s27.541 21.903 30.295 16.818c2.754-5.085-25.377-18.156-25.377-18.156 8.883-6.877 24.931-7.746 24.931-7.746 23.928 1.683 20.535 32.337 20.535 32.337s9.702 7.397 25.464 9.398c0 0 3.089.121 7.665 1.267l-1.707 2.388a28.246 28.246 0 0 0-2.31-.678h-.046c-.488-.099-1.178-.231-2.028-.404-1.948-.291-3.355-.555-4.337-.786-6.041-1.019-14.126-2.045-16.85-.823a5.64 5.64 0 0 0-.73-1.292l.73 1.292c5.829 10.348-7.313 31.822-17.788 41.534-10.474 9.713-10.132 2.455-10.959-7.396-.827-9.852 9.724-21.714 10.396-26.968.672-5.254-5.334-1.172-10.165 6.835-4.83 8.007.033 17.225-7.561 30.317-7.593 13.092-37.338 5.912-37.338 5.912 8.674-6.585 14.854-25.102 12.354-27.771-2.499-2.67-18.268 20.01-21.648 22.883-3.38 2.873-14.757 4.008-26.047-9.803Z" fill="#CDE0FB"/>
        <path d="M234.566 263.578h114.725a19.224 19.224 0 0 1 19.223 19.234v17.046a19.68 19.68 0 0 1-5.758 13.909 19.656 19.656 0 0 1-13.902 5.762H234.566v-55.951Z" fill="#FCECDB"/>
        <path d="M468.399 286.598v8.418a31.18 31.18 0 0 1-2.456 12.329c-3.137 7.286-8.975 12.184-15.656 12.184H230.978c-1.451 0-2.626-1.593-2.626-3.553v-1.262c0-1.96 1.175-3.553 2.626-3.553h129.938a6.002 6.002 0 0 0 5.613-3.774l.014-.042a29.363 29.363 0 0 0 1.961-10.697v-10.7a29.726 29.726 0 0 0-.542-5.693c0-.03 0-.062-.017-.092a10.257 10.257 0 0 0-10.083-8.215H230.978c-1.451 0-2.626-1.593-2.626-3.557v-1.258c0-1.964 1.175-3.555 2.626-3.555h220.421c7.766 0 14.322 7.048 16.351 16.677.436 2.086.654 4.212.649 6.343Z" fill="#B5453C"/>
        <path d="m234.566 291.553 16.238.941-16.238.567v-1.508ZM234.566 300.332l38.632.941-38.632.566v-1.507Z" fill="#F4D2B8"/>
        <path d="M249.221 171.438h94.817c4.258 0 8.342 1.693 11.353 4.705a16.074 16.074 0 0 1 4.702 11.359v14.657c0 4.358-1.73 8.537-4.809 11.618a16.417 16.417 0 0 1-11.611 4.812h-94.452v-47.153.002Z" fill="#FCECDB"/>
        <path d="M442.784 190.838v7.094a26.698 26.698 0 0 1-2.033 10.401c-2.599 6.139-7.429 10.267-12.96 10.267H246.26c-1.202 0-2.174-1.343-2.174-3.005v-1.06c0-1.653.972-3.005 2.174-3.005h110.654a20.839 20.839 0 0 0 1.553-3.216 25.13 25.13 0 0 0 1.617-9.014v-9.015a25.578 25.578 0 0 0-.448-4.798 22.168 22.168 0 0 0-2.564-7.004H246.26c-1.202 0-2.174-1.34-2.174-3.005v-1.058c0-1.657.972-3.005 2.174-3.005h182.455c6.429 0 11.851 5.94 13.535 14.056.362 1.766.541 3.564.534 5.367Z" fill="#AFCDFB"/>
        <path d="m249.221 195.015 13.44.792-13.44.479v-1.271ZM249.221 202.413l31.979.793-31.979.476v-1.269Z" fill="#F4D2B8"/>
        <path d="M391.167 356.098H260.836a18.15 18.15 0 0 1-12.839-5.322 18.173 18.173 0 0 1-5.318-12.846v-1.447c0-4.525 1.796-8.864 4.994-12.064a17.05 17.05 0 0 1 12.057-4.997h131.446v36.676h-.009Z" fill="#2B478B"/>
        <path d="M532.787 356.098H384.343a17.723 17.723 0 0 1-12.537-5.196 17.744 17.744 0 0 1-5.194-12.545v-1.59a17.34 17.34 0 0 1 5.075-12.258 17.32 17.32 0 0 1 12.251-5.077h148.849v36.666Z" fill="#FCECDB"/>
        <path d="M356.762 356.107h181.102a2.634 2.634 0 0 0 2.634-2.635v-.215a2.634 2.634 0 0 0-2.634-2.635H356.762a2.635 2.635 0 0 0-2.634 2.635v.215a2.635 2.635 0 0 0 2.634 2.635ZM356.762 324.917h181.102a2.634 2.634 0 0 0 2.634-2.635v-.215a2.634 2.634 0 0 0-2.634-2.635H356.762a2.634 2.634 0 0 0-2.634 2.635v.215a2.635 2.635 0 0 0 2.634 2.635Z" fill="#2B478B"/>
        <path d="m532.789 337.768-20.147.617 20.147.372v-.989ZM532.789 329.329l-47.931.615 47.931.372v-.987Z" fill="#F4D2B8"/>
        <path d="M485.357 329.821s2.054 1.577 2.733 4.161c.126.473.197.96.213 1.449.113 3.442 0 11.231 0 11.231l6.064-3.878 6.05 3.895v-10.557c0-1.997-.52-3.929-1.483-5.21-.462-.614-1.035-1.079-1.675-1.079l-11.902-.012Z" fill="#699DEE"/>
        <path d="M485.357 329.821s2.054 1.577 2.733 4.161l12.154.155s-.479-3.698-2.985-4.32l-11.902.004Z" fill="#568CDB"/>
        <path d="M492.512 263.578H345.53a19.659 19.659 0 0 1-13.904-5.762 19.68 19.68 0 0 1-5.76-13.913v-6.074c0-5.102 2.026-9.995 5.632-13.603a19.221 19.221 0 0 1 13.596-5.635h147.418v44.987Z" fill="#FCECDB"/>
        <path d="M325.783 236.045v9.685a9.447 9.447 0 0 0 1.021 4.19c1.155 2.312 3.202 4.221 5.775 5.45a15.654 15.654 0 0 0 6.7 1.477h157.629c1.848 0 3.343 1.251 3.343 2.795v1.142c0 1.542-1.497 2.794-3.343 2.794H224.634c-7.815 0-14.715-3.236-18.887-8.208-2.629-3.127-4.172-6.934-4.172-11.055v-7.628c.007-2.764.75-5.476 2.15-7.859 3.5-6.049 10.918-10.221 19.5-10.221h273.683c1.848 0 3.343 1.248 3.343 2.792v1.142c0 1.542-1.497 2.795-3.343 2.795H338.81c-3.777 0-7.196 1.343-9.585 3.492a10.9 10.9 0 0 0-2.467 3.202 9.197 9.197 0 0 0-.975 4.015Z" fill="#7EB2FC"/>
        <path d="m492.509 241.084-20.202.755 20.202.456v-1.211ZM492.509 230.731l-48.066.756 48.066.455v-1.211Z" fill="#F4D2B8"/>
        <path d="M444.93 231.336s3.172 1.426 4.223 3.772c.19.413.301.858.328 1.311.176 3.116 0 10.17 0 10.17l9.365-3.527 9.342 3.527v-9.557a5.937 5.937 0 0 0-2.289-4.716 4.25 4.25 0 0 0-2.587-.977l-18.382-.003Z" fill="#F99746"/>
        <path d="M444.93 231.336s3.172 1.426 4.223 3.773l18.768.138s-.737-3.358-4.621-3.911h-18.37Z" fill="#ED7D2B"/>
        <path d="M668 356.914v.277a.785.785 0 0 1-.757.809H.758a.786.786 0 0 1-.758-.809v-.277a.787.787 0 0 1 .758-.807h666.485a.788.788 0 0 1 .757.807Z" fill="#2E3552"/>
        <path d="M309.444 107.042s3.412 5.05 5.357 15.667c1.702 9.296 3.197 12.729 5.657 14.636 2.461 1.907 16.171 7.535 16.171 7.535l-1.025 2.404s-20.099-2.739-22.349-6.1c-2.25-3.361-10.857-23.209-10.192-27.781.665-4.572 6.381-6.361 6.381-6.361Z" fill="#F4A269"/>
        <path d="M358.645 217.939c-.181 1.96 2.541 2.439 5.706 2.596 3.165.157 2.204.804 6.535 1.588 4.332.784 6.064-.4 6.378-.985.28-.52-1.735-1.331-3.878-2.249l-.811-.351c-2.417-1.063-3.77-3.236-5.653-5.238-1.784-1.904-3.465-7.995-3.465-7.995l-5.884-1.257s1.654 5.482 2.227 7.824c.337 1.387-.162 2.914-.603 4.086a7.67 7.67 0 0 0-.552 1.981Z" fill="#FFB27D"/>
        <path d="M364.351 220.535c3.16.157 2.204.804 6.535 1.588 4.332.783 6.064-.4 6.378-.985.28-.52-1.735-1.331-3.878-2.249l-.035.035a12.31 12.31 0 0 1-6.558.079c-2.865-.777-5.635-2.49-7.608-3.045a7.708 7.708 0 0 0-.54 1.981c-.181 1.96 2.545 2.439 5.706 2.596Z" fill="#C65447"/>
        <path d="M300.051 148.127s39.099-2.944 46.461 1.704c7.362 4.648 19.174 58.789 19.174 58.789s-.728.584-2.354.76c-1.516.164-4.851-.726-4.851-.726s-16.966-24.223-18.16-30.328c-1.195-6.104-.903-11.557-3.625-11.693-2.721-.137-36.643 4.126-41.774-4.919s-.889-17.997-.889-17.997l6.018 4.41Z" fill="#ED7D2B"/>
        <path d="M343.682 224.224c-.18 1.96 2.541 2.436 5.708 2.593 3.167.158 2.204.805 6.533 1.591 4.329.786 6.067-.4 6.381-.987.277-.518-1.735-1.332-3.881-2.249l-.811-.352c-2.414-1.061-3.768-3.236-5.651-5.237-1.783-1.903-3.465-7.995-3.465-7.995l-5.904-1.249s1.651 5.485 2.224 7.824c.337 1.387-.159 2.918-.6 4.089a7.795 7.795 0 0 0-.534 1.972Z" fill="#FFB27D"/>
        <path d="M349.39 226.817c3.158.158 2.204.805 6.533 1.591 4.329.786 6.067-.4 6.381-.987.277-.518-1.735-1.332-3.881-2.249l-.032.037c-2.14.617-4.406.644-6.559.078-2.864-.779-5.634-2.491-7.607-3.044-.268.634-.45 1.3-.543 1.981-.18 1.96 2.548 2.436 5.708 2.593Z" fill="#C65447"/>
        <path d="M292.393 150.55s34.732 1.645 41.908 6.578c7.175 4.933 16.863 59.491 16.863 59.491s-.75.555-2.384.668c-1.52.104-4.814-.924-4.814-.924s-16.011-24.866-16.968-31.012c-.956-6.147-.462-11.574-3.167-11.826-2.705-.252-36.777 2.695-41.552-6.541-4.775-9.236 10.114-16.434 10.114-16.434Z" fill="#F99746"/>
        <path d="M307.94 75.93c-1.329-1.285-3.167-1.849-4.491-2.117a2.271 2.271 0 0 1 1.118-.217c-.779-.329-2.788.011-2.788.011-10.135-7.22-16.148 8.892-16.899 12.8-.751 3.91-2.125 9.503-6.9 14.348-12.244 12.431 5.248 26.812 5.248 26.812.074.074 8.779-18.57 17.523-21.565 2.511-2.217 4.373-6.791 4.516-7.152-1.278 3.678-2.46 5.622-3.338 6.662 7.836-4.207 9.536-26.182 6.011-29.582Z" fill="#163560"/>
        <path d="M290.933 101.226a39.238 39.238 0 0 1 6.468 0c1.928.205 3.818.68 5.614 1.41 3.061 1.279 2.74 6.703-3.697 5.698-6.436-1.006-8.836-5.501-8.385-7.108Z" fill="#FFB27D"/>
        <path d="M302.744 105.181c.037.019.924 4.665-3.289 4.477-2.773-.12-8.716-3.467-8.19-5.829.25-1.123 2.336-4.04 2.756-10.7l.504.134 8.45 2.268s-.374 2.686-.55 5.224c-.147 2.133-.154 4.165.319 4.426Z" fill="#FFB27D"/>
        <path d="M302.975 95.531s-.374 2.686-.55 5.224c-4.784-.462-7.025-4.998-7.9-7.492l8.45 2.268Z" fill="#F4A269"/>
        <path d="M293.728 91.787s-1.451-4.482-1.19-7.929c.185-2.459 3.618-10.863 12.057-7.368 1.7.697 3.223 1.767 4.456 3.132 1.573 1.775 3.606 5.253-1.414 12.077l-1.455 2.367-12.454-2.28Z" fill="#163560"/>
        <path d="M303.202 99.426s-11.054-2.642-9.303-9.505c1.751-6.863 1.504-11.825 8.635-10.429 7.132 1.396 7.829 4.366 7.801 6.798-.027 2.431-4.213 13.646-7.133 13.136Z" fill="#FFB27D"/>
        <path d="M307.589 80.61s-5.083 7.277-10.005 7.28c-4.923.002-6.619-1.753-6.619-1.753a13.523 13.523 0 0 0 6.267-6.643s9.065-3.296 10.357 1.117Z" fill="#163560"/>
        <path d="M306.676 81.073s1.788 2.374 1.89 4.262c.102 1.889-.573 5.548.506 5.693 0 0 3.673-4.886 1.913-8.635-1.865-3.976-4.309-1.32-4.309-1.32Z" fill="#163560"/>
        <path d="M315.771 148.717c-.924 1.1-3.786 1.438-6.852 1.941-2.411.398-4.946.897-6.748 1.958-4.091 2.402-17.459 10.526-21.377 10.157-1.52-.144-1.234-3.045-.315-6.895 1.449-6.079 4.48-14.523 4.48-18.194 0-2.004.667-6.747 1.557-12.167.071-.437.145-.876.231-1.322 1.76-10.54 4.197-22.969 4.197-22.969s2.719 5.936 8.016 5.936c5.297 0 4.066-4.526 4.066-4.526s4.835.569 5.976 1.799c1.142 1.229 4.039 6.55 4.621 8.002 0 0 .117 1.849-4.452 2.725 0 0 1.114 5.011 1.245 8.351.097 2.469-1.684 10.193-2.194 14.997-.183 1.701-.206 3.037.069 3.642.353.777 1.497 1.549 2.797 2.312 2.565 1.5 5.773 2.947 4.683 4.253Z" fill="#1C468A"/>
        <path d="M311.07 144.464c2.932 5.002-7.951 6.506-9.753 7.565-4.091 2.404-16.605 11.118-20.523 10.748-1.52-.143-1.234-3.044-.315-6.895 1.449-6.079 4.48-14.522 4.48-18.193 0-2.004.667-6.747 1.557-12.167l4.715-4.531s5.054 13.069 9.871 15.212a40.624 40.624 0 0 0 7.101 2.311c-.182 1.701-.205 3.037.07 3.643.36.772 1.497 1.544 2.797 2.307Z" fill="#2C3A64"/>
        <path d="M289.484 105.137s-4.033-2.45-7.933 2.198c-3.899 4.649 2.772 37.875 8.548 39.584 6.417 1.895 25.67 1.798 25.67 1.798l-.804-2.337s-20.004-6.449-20.824-7.505c-.82-1.057-2.603-33.201-4.657-33.738Z" fill="#FFB27D"/>
        <path d="M290.933 101.226s-8.282.747-10.687 3.467c-2.405 2.721-3.107 10.111-3.107 10.111s7.293 5.891 16.078 3.605l-2.284-17.183Z" fill="#1C468A"/>
        <path d="m342.335 136.762.79-7.267-10.273 13.543s4.302 2.142 4.553 1.733l4.93-8.009Z" fill="#163560"/>
        <path d="m326.964 136.762-9.49 14.497h15.937l8.924-14.497h-15.371Z" fill="#1C468A"/>
        <path d="m342.335 136.762.746-7.198-5.368 6.722 4.622.476ZM317.961 150.515l-.728-.52 9.43-14.021.301.788-9.003 13.753Z" fill="#EFDECE"/>
        <path d="m326.663 135.974 15.014.423.658.365h-15.371l-.301-.788Z" fill="#FCECDB"/>
        <path d="M323.529 148.393a5.473 5.473 0 0 0-1.024 0c1.155-.534 2.31-1.114 2.31-1.114s-.513-.527-2.483.173a1.49 1.49 0 0 1-.665.074l2.772-1.243c-.492-.444-1.816-.09-2.846.289a2.281 2.281 0 0 1-2.176-.333l-.031-.023.137-.016c1.617-.231 2.021-1.156 1.575-1.054-.446.101-3.151.302-3.151.302-1.222-.069-3.643.865-3.643.865l1.354 2.499s3.892.725 4.907.411c.08-.025.178-.06.286-.102l3.539-.231s-.083-.402-.861-.497Z" fill="#FFB27D"/>
        <path d="M460.408 246.011s20.426 8.904 24.131 8.742c3.706-.161 26.567-6.962 26.567-6.962l-.582 3.93s-17.631 10.147-23.795 10.722c-6.068.567-26.818-5.45-28.821-6.719-2.003-1.269-3.324-8.425 2.5-9.713Z" fill="#ED985F"/>
        <path d="M457.338 213.259s-7.536-1.433-11.288 1.31c-6.798 4.965-7.161 22.091-9.702 24.64-2.541 2.549-8.688 1.463-9.241 14.664-.552 13.2 2.447 14.303-1.118 20.195-3.564 5.891 1.509 11.788 1.509 11.788s-2.079-3.252-1.188-5.601c0 0 .864 5.182 4.159 6.396 3.294 1.213 3.777 2.106 4.301 3.885 0 0 28.066-14.388 28.096-24.593.03-10.205 5.523-20.317 2.827-24.732 0 0 1.202 1.893 1.347 3.996 0 0 1.617-3.102-1.185-5.991s3.29-8.864 2.386-15.787c-.628-4.757-3.959-9.965-10.903-10.17Z" fill="#233862"/>
        <path d="M462.889 255.736c-1.795 1.245-4.043 2.272-6.868 2.924-10.583 2.447-14.639-6.505-16.171-12.649a9.15 9.15 0 0 1 3.588-1.102c.764-.09 1.568-.15 2.236-.183 1.187-.91 2.959-4.639 3.35-10.427l.499.135 8.339 2.283s-.381 2.654-.568 5.162c-.146 1.962-.166 3.837.203 4.297.652.141 1.042.231 1.042.231a53.792 53.792 0 0 1 4.35 9.329Z" fill="#FFB27D"/>
        <path d="M457.867 236.72s-.384 2.651-.571 5.161c-4.724-.462-6.93-4.976-7.771-7.445l8.342 2.284Z" fill="#ED985F"/>
        <path d="M459.281 239.209s-11.216-.617-10.724-7.602c.492-6.985-.621-11.765 6.561-11.666 7.182.099 8.383 2.864 8.778 5.233.395 2.369-1.684 14.017-4.615 14.035Z" fill="#FFB27D"/>
        <path d="M463.85 221.268c-1.583-2.224-2.925-1.849-3.696-1.278-5.882-3.81-10.186.889-10.186.889a13.374 13.374 0 0 1-4.925 7.568s1.952 1.408 6.746.534c1.464-.266 2.823-1.197 4.003-2.36a26.158 26.158 0 0 1-4.893 5.175c5.81-2.196 8.629-9.86 8.913-10.672.64.664 1.892 2.097 2.211 3.435.432 1.817 2.289 4.66 3.365 4.623-.006-.012.832-4.577-1.538-7.914Z" fill="#233862"/>
        <path d="M436.662 278.556c-1.012-5.182-4.315-25.888-1.012-32.544 1.185-2.393 5.84-2.61 10.948-2.4 1.589 1.027 7.644 4.907 10.132 4.422l.139-.032c1.171-.294 1.617-1.117.635-1.826a22.232 22.232 0 0 1 5.671.346c1.775.335 6.559 2.813 6.559 2.813s-2.41 4.355-5.963 5.86c.606 5.406-.293 7.794-5.902 20.285-4.738 10.558.64 20.063.64 20.063s-27.892 22.439-28.047 11.014c-.116-8.601 7.496-21.378 6.2-28.001Z" fill="#fff"/>
        <path d="M459.893 319.942a5.166 5.166 0 0 0 2.115-.724 5.16 5.16 0 0 0 1.613-1.548c.137-.201.28-.418.432-.649 3.177-4.81 4.41-19.536 11.551-35.226 1.74-3.821 7.981-4.508 9.684-8.825 0 0 4.191-13.996-8.018-14.41-12.209-.414-32.703 38.943-33.033 43.081-.307 3.987-8.067 20.98 15.656 18.301Z" fill="#DD6D22"/>
        <path d="M508.426 319.621h-17.379s-.651-2.774.49-4.662c1.012-1.669.623-2.621-.125-4.003.922.4 1.922.589 2.927.552.866-.051 1.783-.444 2.585-.911.748.856 3.953 4.487 4.953 5.206 1.134.818 6.2.527 6.549 3.818Z" fill="#233862"/>
        <path d="M438.494 251.439s-2.262 20.592 12.41 24.905c14.671 4.313 18.834-18.953 6.99-20.618-11.844-1.664-19.4-4.287-19.4-4.287Z" fill="#EBEEF2"/>
        <path d="M485.688 262.608c1.048 7.858 5.135 32.628 12.343 44.716 2.326 3.897-5.857 6.082-5.9 6.072-1.098-.288-2.925-2.038-3.766-2.799-5.854-5.277-17.735-20.222-17.735-32.202 0-5.844-.104-17.001 4.142-19.837 2.615-1.748 10.502.931 10.916 4.05Z" fill="#ED7D2B"/>
        <path d="M449.527 319.621s.645-.897 1.768-2.6c1.337-2.027 2.816-6.01 4.62-11.123 1.885-5.365 4.121-11.964 6.916-18.831.862-2.12 1.779-4.265 2.754-6.407 1.739-3.819 6.524-3.292 8.226-7.609 0 0 6.642-14.969-5.569-15.383-12.212-.414-35.424 40.043-36.757 43.972-1.46 4.279-8.582 22.091 18.042 17.981Z" fill="#F99746"/>
        <path d="M495.667 319.621h-17.379s-.651-2.774.49-4.662c1.012-1.669.624-2.621-.125-4.003.923.4 1.924.589 2.929.552.864-.051 1.782-.444 2.583-.911.749.856 3.953 4.487 4.953 5.206 1.137.818 6.2.527 6.549 3.818Z" fill="#2B478B"/>
        <path d="M455.905 305.898c1.885-5.365 4.122-11.964 6.917-18.831-.73-5.203-2.31-9.754-4.953-11.587-.002 0-6.422 19.92-1.964 30.418Z" fill="#ED7D2B"/>
        <path d="M475.544 262.05c1.046 7.859 2.52 33.186 9.73 45.274 2.324 3.897-5.856 6.082-5.902 6.072-1.095-.288-2.925-2.038-3.766-2.799-5.854-5.277-17.735-20.222-17.735-32.202 0-5.844 6.852-16.534 11.089-19.368 2.624-1.747 6.168-.095 6.584 3.023Z" fill="#F99746"/>
        <path d="M461.383 235.194s-1.063-.421-4.045-.178c0 0 .157 1.156 2.358 1.281 1.248.064 1.687-1.103 1.687-1.103Z" fill="#fff"/>
        <path d="m513.271 239.565-3.604-6.504-7.795 21.764 4.6 4.939 6.799-20.199Z" fill="#163560"/>
        <path d="m494.457 243.374-7.247 20.713 19.262-4.323 6.799-20.199-18.814 3.809Z" fill="#1C468A"/>
        <path d="m487.593 263.042-.337-.589 6.857-19.601.344.522-6.864 19.668Z" fill="#EFDECE"/>
        <path d="m494.113 242.852 18.261-3.555.897.268-18.814 3.809-.344-.522Z" fill="#FCECDB"/>
        <path d="m513.27 239.565-3.894-6.188-2.486 6.985 5.484-1.065.896.268Z" fill="#EFDECE"/>
        <path d="M500.017 246.374c-.626-.12-1.97-.626-3.331-1 .407-.317.859-.694.984-1.103.231-.767.404-1.012-.404-.77-.809.243-3.641 1.542-3.641 1.542-1.617.462-3.091 2.746-3.091 2.746s-19.913 7.004-22.311 7.124c-3.696.187-28.375-8.904-28.375-8.904-5.822 1.288-4.514 8.444-2.511 9.708 2.003 1.265 19.754 7.73 30.262 7.859 5.327.062 24.719-12.403 24.719-12.403s2.264-1.036 4.045-.712c1.781.324 5.907 0 6.796-1.459.889-1.458-2.093-2.424-3.142-2.628Z" fill="#FFB27D"/>
        <path d="M452.567 250.496s-2.206 6.987-9.783 8.577c0 0-12.514-3.857-6.284-12.387 0 0 6.162-4.579 16.067 3.81Z" fill="#fff"/>
        <path d="M512.947 246.901a1.864 1.864 0 0 0-.067-.566s-1.783-2.827-2.368-2.942c-1.781-.352-1.781 1.994-1.402 3.508.267.98.773 1.878 1.474 2.612l-.07 2.21c3.004-1.653 2.433-4.822 2.433-4.822Z" fill="#FFB27D"/>
        <path d="M355.297 281.323s-3.172 1.939-4.223 5.125a6.508 6.508 0 0 0-.33 1.782c-.173 4.234 0 13.815 0 13.815l-9.358-4.796-9.34 4.791v-12.985c0-2.455.802-4.854 2.289-6.407.721-.759 1.597-1.33 2.588-1.33l18.374.005Z" fill="#F99746"/>
        <path d="M355.297 281.323s-3.171 1.939-4.223 5.125l-18.769.189s.737-4.56 4.62-5.316l18.372.002Z" fill="#ED7D2B"/>
        <path d="M170.949 219.34s1.989 8.638 7.788 8.638c4.971 0 11.782-11.243 11.782-11.243l-19.57 2.605Z" fill="#F99746"/>
        <path d="m237.19 347.672-3.326 1.769s-17.992-19.088-22.316-37.404c-.772-3.27-1.084-6.495-.753-9.555l-.721-2.298-.06-.194c-.201-.645-.441-1.401-.707-2.258-.869-2.774-2.063-6.555-3.421-10.864-3.133-9.923-10.294-32.302-13.355-41.605l21.997-7.963s2.497 5.7 6.087 21.193c.554 2.023 1.109 4.26 1.617 6.703.587 2.76 1.134 5.779 1.592 9.038a138.546 138.546 0 0 1 1.317 18.551c.013 2.774-.064 5.645-.232 8.613-.12 2.175.204 5.073.809 8.372 2.791 15.056 11.472 37.902 11.472 37.902Z" fill="#2B478B"/>
        <path d="M249.233 356.107h-17.788s-.663-2.839.503-4.769c1.033-1.71.638-2.683-.127-4.095a6.945 6.945 0 0 0 3.003.564c.888-.051 1.823-.463 2.646-.925.764.874 4.042 4.59 5.066 5.316 1.157.839 6.339.541 6.697 3.909ZM223.831 274.218l-13.817 25.772c-.201-.645-.441-1.401-.707-2.258-.869-2.774-2.063-6.555-3.421-10.864-3.133-9.923-10.294-32.302-13.355-41.605l21.997-7.963s2.497 5.7 6.087 21.193c.554 2.023 1.109 4.26 1.617 6.703.594 2.744 1.141 5.76 1.599 9.022ZM192.173 350.536s-1.232 3.021-.072 5.571h9.672s.201-2.298-3.308-4.963c-2.659-2.018-6.292-.608-6.292-.608Z" fill="#233862"/>
        <path d="M202.7 153.802c0-.481.254-5.677 8.141-6.137 0 0-3.87.557-4.5 2.279 0 0 2.592-2.173 4.761-1.546 2.169.626 3.525 4.371 3.567 5.612.041 1.241-1.056 5.27-2.415 5.642a4.132 4.132 0 0 1-1.654.044c.405.6.774 1.224 1.105 1.868 3.308 6.393.462 13.926-2.23 13.293-1.721-.407-2.772 2.577-2.772 2.577l-16.549-14.248s5.8-12.78 12.546-9.384Z" fill="#2C3A64"/>
        <path d="M192.295 197.083c1.834 1.274 4.135 2.323 7.025 2.991 10.83 2.504 14.979-6.654 16.538-12.944a9.337 9.337 0 0 0-3.668-1.128 36.727 36.727 0 0 0-2.29-.187c-1.215-.924-3.026-4.745-3.428-10.667l-.508.136-8.548 2.337s.391 2.716.583 5.282c.147 2.006.171 3.929-.208 4.391l-1.065.232a54.845 54.845 0 0 0-4.431 9.557Z" fill="#FFB27D"/>
        <path d="M197.428 177.626s.393 2.711.582 5.279c4.835-.483 7.081-5.085 7.954-7.616l-8.536 2.337Z" fill="#ED985F"/>
        <path d="M197.329 181.698s11.132-2.861 9.24-9.77c-1.892-6.909-1.723-11.934-8.912-10.401-7.189 1.532-7.836 4.551-7.765 7.013.072 2.461 4.491 13.725 7.437 13.158Z" fill="#FFB27D"/>
        <path d="M189.165 164.608c1.143-2.543 2.562-2.448 3.465-2.023 5.145-4.997 10.396-1.144 10.396-1.144 2.102 4.752 6.452 6.611 6.452 6.611s-1.677 1.803-6.663 1.886c-1.522.023-3.07-.638-4.486-1.569a26.772 26.772 0 0 0 5.942 4.216c-6.27-1.045-10.627-8.171-11.075-8.929-.511.792-1.481 2.48-1.532 3.887-.069 1.91.675 5.599-.413 5.765-.002 0-3.8-4.879-2.086-8.7Z" fill="#2C3A64"/>
        <path d="M194.127 186.964s18.696-4.542 26.827 2.168l-4.063 56.695-36.567-8.839s1.028-3.588 8.042-13.127c7.013-9.539 3.961-23.532 5.761-36.897Z" fill="#FFB27D"/>
        <path d="m205.026 239.516-.06.557-.06.571c-.157 1.47-.462 4.288-.841 7.954-1.003 9.615-2.576 25.06-3.65 37.249-.839 9.532-1.372 17.074-1.083 18.285.864 3.645 0 47.216 0 47.216-3.11 1.49-7.82 0-7.82 0s-8.28-39.265-7.12-44.722a18.817 18.817 0 0 0-.776-10.115c-6.429-29.951-5.725-46.549-4.447-54.505a33.877 33.877 0 0 1 1.099-4.854c.121-.407.269-.805.442-1.193 14.177-3.807 24.316 3.557 24.316 3.557Z" fill="#2B478B"/>
        <path d="M223.475 205.303c-.903 6.821-4.514 15.165-5.803 19.647 0 0 2.155 15.597.097 19.878a1.9 1.9 0 0 1-.878.985c-7.623 3.321-37.318.094-38.579-9.477-.462-3.483 11.32-15.732 11.996-17.218.285-.615.59-2.607-.792-6.738-1.954 6.033-12.747 4.297-12.747 4.297 1.268-2.168 4.424-17.171 7.947-23.944 2.649-5.085 9.723-5.827 9.723-5.827s2.943 4.672 10.063 4.008c7.12-.663 8.42-5.023 8.42-5.023s6.316.842 8.261 2.411c.344.275 3.475 8.065 2.292 17.001Z" fill="#F99746"/>
        <path d="M217.672 224.961s2.155 15.598.097 19.879c-5.545-2.79-12.796-8.812-10.592-18.221 3.202-13.672 16.298-21.319 16.298-21.319-.904 6.824-4.514 15.168-5.803 19.661Z" fill="#ED7D2B"/>
        <path d="m194.483 206.516 12.731 20.438h-21.662l-12.131-19.994 21.062-.444Z" fill="#1C468A"/>
        <path d="m206.553 225.928.22-.715-12.05-19.339-.24.642 12.07 19.412Z" fill="#EFDECE"/>
        <path d="m194.723 205.874-20.408.582-.894.504 21.062-.444.24-.642Z" fill="#FCECDB"/>
        <path d="m173.421 206.96-11.449-6.202 13.346 20.97 10.234 5.226-12.131-19.994Z" fill="#163560"/>
        <path d="M234.016 221.282c-1.225.559-4.373 4.269-5.496 4.646-5.052 1.692-26.55-2.809-26.55-2.809l.665-3.767s21.101.559 23.42-.061c.437-.117 2.717-3.698 3.595-4.199l4.366 6.19ZM202.626 219.354s-2.541-2.08-4.265-1.602c-1.723.478-4.25 2.644-5.188 3.16-.938.515-3.493 2.357-2.199 3.467 1.293 1.109 5.313.157 6.916-.694 1.603-.85 4.068-.561 4.068-.561l.668-3.77Z" fill="#FFB27D"/>
        <path d="M198.849 217.678s-3.093-.367-3.927-.351c-.834.016-.615.203-.148.857.466.654 2.079.906 2.15 1.138.072.231 1.925-1.644 1.925-1.644Z" fill="#FFB27D"/>
        <path d="M212.929 185.894s9.171 1.1 11.696 5.029c3.193 4.977 10.728 24.79 10.486 29.783 0 0-5.51 9.382-24.4 7.88 0 0-1.966-6.935 2.008-9.246 0 0 9.702-1.727 10.82-2.711l-3.234-13.478-7.376-17.257Z" fill="#F99746"/>
        <path d="M176.353 214.431c-.284-1.156-2.802-.435-3.652.231-.251.22-.468.475-.645.758a8.193 8.193 0 0 1-.062-.523c-.049-.543-.679-1.516-.837-.788-.157.728-.415 3.789-.415 3.789-.03 2.466 1.552 3.481 2.568 2.679 1.017-.802 3.329-4.991 3.043-6.146Z" fill="#FFB27D"/>
    </symbol>
    <symbol id="account" viewBox="0 0 40 40">
        <path
                d="M20 0C8.96 0 0 8.96 0 20s8.96 20 20 20 20-8.96 20-20S31.04 0 20 0Zm0 6c3.32 0 6 2.68 6 6s-2.68 6-6 6-6-2.68-6-6 2.68-6 6-6Zm0 28.4c-5 0-9.42-2.56-12-6.44.06-3.98 8-6.16 12-6.16 3.98 0 11.94 2.18 12 6.16-2.58 3.88-7 6.44-12 6.44Z"
        />
    </symbol>
    <symbol id="registration_logo" viewBox="0 0 50 45">
        <path
                fill="#3077C6"
                d="M28.652 34.748c0-2.056.511-4.03 1.473-5.79a54.137 54.137 0 0 0-2.782-1.472.362.362 0 0 1-.205-.338v-8.08a3.776 3.776 0 0 0 1.688-3.141V7.549A7.55 7.55 0 0 0 21.276 0h-1.8a7.55 7.55 0 0 0-7.549 7.55v8.377c0 1.31.675 2.465 1.688 3.14v8.081a.38.38 0 0 1-.205.338c-1.155.562-6.75 3.386-11.937 7.651A4.04 4.04 0 0 0 0 38.277v5.739h32.979a10.52 10.52 0 0 1-.788-.726 12.01 12.01 0 0 1-3.54-8.542Z"
        />
        <path
                fill="#3077C6"
                d="M40.732 25.48c-5.114 0-9.267 4.154-9.267 9.268 0 5.115 4.153 9.268 9.267 9.268 5.115 0 9.268-4.153 9.268-9.268a9.266 9.266 0 0 0-9.268-9.267ZM46.154 36.1h-4.071v4.07h-2.7V36.1H35.31v-2.701h4.071v-4.071h2.7v4.071h4.072v2.7Z"
        />
    </symbol>
    <symbol id="starBlack"  width="15" height="14" viewBox="0 0 15 14">
    <path d="M6.549.927c.3-.921 1.603-.921 1.902 0l.957 2.946a1 1 0 0 0 .951.691h3.098c.97 0 1.372 1.24.588 1.81l-2.506 1.82a1 1 0 0 0-.363 1.118l.957 2.947c.3.92-.755 1.687-1.539 1.118l-2.506-1.821a1 1 0 0 0-1.176 0l-2.506 1.82c-.784.57-1.838-.196-1.539-1.117l.957-2.947a1 1 0 0 0-.363-1.118L.955 6.374c-.784-.57-.381-1.81.588-1.81H4.64a1 1 0 0 0 .95-.69L6.55.926Z"/>
    </symbol>
    <symbol id="starWhite" width="15" height="14" viewBox="0 0 15 14">
        <path d="M6.916 1.082a.5.5 0 0 1 .951 0l.957 2.946a1.5 1.5 0 0 0 1.427 1.036h3.098a.5.5 0 0 1 .294.905l-2.506 1.82a1.5 1.5 0 0 0-.545 1.678l.957 2.946a.5.5 0 0 1-.77.56L8.274 11.15a1.5 1.5 0 0 0-1.763 0l-2.506 1.821a.5.5 0 0 1-.77-.559l.958-2.946a1.5 1.5 0 0 0-.545-1.677L1.14 5.969a.5.5 0 0 1 .294-.905h3.098A1.5 1.5 0 0 0 5.96 4.028l.957-2.946Z" fill="#fff" stroke="#000"/>
    </symbol>
    <symbol id="close" width="16" height="17" viewBox="0 0 16 17">
        <path d="M16 2.58 14.389.971 8 7.351 1.611.97 0 2.581 6.389 8.96 0 15.34l1.611 1.608L8 10.57l6.389 6.38L16 15.338 9.611 8.96 16 2.582Z" fill="#B5B5B5"/>
    </symbol>
    <symbol id="search" width="18" height="18" viewBox="0 0 18 18" fill="none">
            <path d="M12.8645 11.3208H12.0515L11.7633 11.0429C12.7719 9.86964 13.3791 8.34648 13.3791 6.68954C13.3791 2.99485 10.3842 0 6.68954 0C2.99485 0 0 2.99485 0 6.68954C0 10.3842 2.99485 13.3791 6.68954 13.3791C8.34648 13.3791 9.86964 12.7719 11.0429 11.7633L11.3208 12.0515V12.8645L16.4666 18L18 16.4666L12.8645 11.3208ZM6.68954 11.3208C4.12693 11.3208 2.05832 9.25214 2.05832 6.68954C2.05832 4.12693 4.12693 2.05832 6.68954 2.05832C9.25214 2.05832 11.3208 4.12693 11.3208 6.68954C11.3208 9.25214 9.25214 11.3208 6.68954 11.3208Z" fill="#B5B5B5"/>

    </symbol>

</svg>